HIERARCHY
ROOT Hips
{
	OFFSET 0.000000 88.474243 0.000000
	CHANNELS 6 Xposition Yposition Zposition Zrotation Yrotation Xrotation 
	JOINT Hips_Spine
	{
		OFFSET 0.000000 0.000000 0.000000
		CHANNELS 3 Zrotation Yrotation Xrotation
		JOINT Spine
		{
			OFFSET 0.005100 8.711998 -0.691000
			CHANNELS 3 Zrotation Yrotation Xrotation
			JOINT Spine1
			{
				OFFSET -0.009200 8.660301 -1.275000
				CHANNELS 3 Zrotation Yrotation Xrotation
				JOINT Spine2
				{
					OFFSET 0.006300 9.852501 -1.857000
					CHANNELS 3 Zrotation Yrotation Xrotation
					JOINT Spine2_Neck
					{
						OFFSET 0.000000 0.000000 0.000000
						CHANNELS 3 Zrotation Yrotation Xrotation
						JOINT Neck
						{
							OFFSET 0.016300 11.420799 -0.263300
							CHANNELS 3 Zrotation Yrotation Xrotation
							End Site #name: Head
							{
								OFFSET -0.019200 9.262405 2.362500
							}
						}
					}
					JOINT Spine2_LeftShoulder
					{
						OFFSET 0.000000 0.000000 0.000000
						CHANNELS 3 Zrotation Yrotation Xrotation
						JOINT LeftShoulder
						{
							OFFSET 5.616900 6.732201 -0.345700
							CHANNELS 3 Zrotation Yrotation Xrotation
							JOINT LeftArm
							{
								OFFSET 10.664888 -0.183372 -2.440700
								CHANNELS 3 Zrotation Yrotation Xrotation
								JOINT LeftForeArm
								{
									OFFSET 27.459126 0.000000 0.000000
									CHANNELS 3 Zrotation Yrotation Xrotation
									End Site #name: LeftHand
									{
										OFFSET 21.306858 0.000000 0.000000
									}
								}
							}
						}
					}
					JOINT Spine2_RightShoulder
					{
						OFFSET 0.000000 0.000000 0.000000
						CHANNELS 3 Zrotation Yrotation Xrotation
						JOINT RightShoulder
						{
							OFFSET -5.580300 6.737503 -0.344400
							CHANNELS 3 Zrotation Yrotation Xrotation
							JOINT RightArm
							{
								OFFSET -10.679335 -0.188484 -2.383900
								CHANNELS 3 Zrotation Yrotation Xrotation
								JOINT RightForeArm
								{
									OFFSET -27.503529 0.000000 0.000000
									CHANNELS 3 Zrotation Yrotation Xrotation
									End Site #name: RightHand
									{
										OFFSET -21.306808 0.000000 0.000000
									}
								}
							}
						}
					}
				}
			}
		}
	}
	JOINT Hips_LeftUpLeg
	{
		OFFSET 0.000000 0.000000 0.000000
		CHANNELS 3 Zrotation Yrotation Xrotation
		JOINT LeftUpLeg
		{
			OFFSET 6.857700 -6.739601 0.312100
			CHANNELS 3 Zrotation Yrotation Xrotation
			JOINT LeftLeg
			{
				OFFSET -0.367590 -34.731552 -4.572400
				CHANNELS 3 Zrotation Yrotation Xrotation
				End Site #name: LeftFoot
				{
					OFFSET 0.367590 -34.656704 -6.067400
				}
			}
		}
	}
	JOINT Hips_RightUpLeg
	{
		OFFSET 0.000000 0.000000 0.000000
		CHANNELS 3 Zrotation Yrotation Xrotation
		JOINT RightUpLeg
		{
			OFFSET -6.876100 -6.733299 0.301000
			CHANNELS 3 Zrotation Yrotation Xrotation
			JOINT RightLeg
			{
				OFFSET 0.347353 -34.795158 -4.515900
				CHANNELS 3 Zrotation Yrotation Xrotation
				End Site #name: RightFoot
				{
					OFFSET -0.347353 -34.589367 -6.070300
				}
			}
		}
	}
}
MOTION
Frames: 7
Frame Time: 0.041667
2.772008 -0.254988 -3.603051 175.078134 -13.896000 -178.192394 0.000000 -0.000000 0.000000 -3.568047 1.218590 4.818254 -0.251515 -2.130579 1.988801 0.000000 0.000000 0.000000 0.557634 -1.858271 3.222831 3.164942 -33.096983 -0.345420 -0.372155 -1.647363 -0.168258 0.044265 -3.207263 -0.302414 -82.721006 -22.365953 6.574336 6.408464 -26.208911 2.823478 -0.288931 -2.681124 0.949066 19.750615 16.782215 4.352757 53.696019 18.476402 6.950569 7.160369 69.617558 10.226234 0.000000 0.000000 -0.000000 -4.941819 15.719741 -9.775307 0.300047 -36.651071 -13.636112 0.000000 0.000000 -0.000000 -4.317692 -52.315906 -12.583145 -16.254512 -10.531435 22.543369 
2.811024 -0.228984 -3.723670 175.111448 -13.894204 -178.245731 0.000000 -0.000000 0.000000 -3.790405 1.258043 4.943327 -0.284158 -2.047151 1.923326 0.000000 0.000000 0.000000 0.518705 -1.822238 3.107742 2.908181 -32.458355 -0.419683 -0.394084 -1.608793 -0.182954 0.000530 -3.373263 -0.226671 -82.456393 -22.611845 6.993731 6.295870 -26.929611 2.636013 -0.312492 -2.623861 0.854856 19.448868 16.803584 4.285086 53.646418 18.339189 7.046317 6.022664 69.264855 9.161674 0.000000 0.000000 -0.000000 -4.941415 15.544799 -9.867599 0.245363 -36.581075 -13.410636 0.000000 0.000000 -0.000000 -4.259867 -51.734305 -12.430080 -15.548827 -9.695744 22.208337 
2.848797 -0.200751 -3.843704 175.133320 -13.982674 -178.285960 0.000000 -0.000000 0.000000 -3.963739 1.336581 5.049931 -0.307357 -1.947765 1.865640 0.000000 0.000000 0.000000 0.485843 -1.780001 3.002656 2.605059 -31.701597 -0.516418 -0.409324 -1.557528 -0.186184 -0.039441 -3.570753 -0.132640 -82.169989 -22.855725 7.416033 6.187859 -27.759637 2.417785 -0.322216 -2.557570 0.772506 19.122360 16.842263 4.205153 53.607713 18.171882 7.159746 4.716848 69.036367 7.980789 0.000000 0.000000 0.000000 -4.918079 15.361213 -9.971532 0.163769 -36.476610 -13.124241 0.000000 0.000000 -0.000000 -4.203246 -51.238316 -12.267670 -14.813829 -8.767157 21.862663 
2.886138 -0.170496 -3.963753 175.138238 -14.093331 -178.309779 0.000000 -0.000000 0.000000 -4.116192 1.437398 5.159525 -0.330589 -1.859837 1.796322 0.000000 0.000000 0.000000 0.453439 -1.735187 2.903935 2.261136 -30.816501 -0.634702 -0.424472 -1.499496 -0.186285 -0.070938 -3.757633 -0.040089 -81.859478 -23.115841 7.811236 6.108492 -28.757072 2.188911 -0.330757 -2.485374 0.703248 18.785498 16.910658 4.109866 53.576051 17.982148 7.267363 3.372354 68.899708 6.786629 0.000000 0.000000 -0.000000 -4.881823 15.168813 -10.130897 0.045051 -36.319993 -12.737592 0.000000 -0.000000 -0.000000 -4.148023 -50.824893 -12.104668 -14.197103 -7.910634 21.546951 
2.924402 -0.138622 -4.083404 175.124466 -14.183936 -178.313518 -0.000000 -0.000000 0.000000 -4.249802 1.547872 5.259906 -0.363704 -1.775436 1.716724 0.000000 0.000000 0.000000 0.416394 -1.684970 2.808596 1.885028 -29.744667 -0.817252 -0.441608 -1.435266 -0.179597 -0.093237 -3.966037 0.063881 -81.551969 -23.370933 8.147101 6.045351 -29.911332 1.951205 -0.343341 -2.409922 0.643060 18.439835 17.047454 4.004053 53.536525 17.835077 7.327193 1.758317 68.844756 5.357064 0.000000 0.000000 -0.000000 -4.825503 14.985054 -10.367738 -0.117475 -36.127073 -12.233763 0.000000 -0.000000 -0.000000 -4.078325 -50.499144 -11.984350 -13.705730 -7.141136 21.312944 
2.962776 -0.105803 -4.204184 175.080847 -14.213061 -178.287311 -0.000000 -0.000000 0.000000 -4.366688 1.654824 5.367103 -0.405407 -1.685236 1.643103 0.000000 0.000000 0.000000 0.378341 -1.630683 2.717158 1.524104 -28.537676 -1.070118 -0.457918 -1.365109 -0.172828 -0.124571 -4.148145 0.166732 -81.241520 -23.608995 8.428766 6.032037 -31.187209 1.723672 -0.360031 -2.330051 0.584679 18.107369 17.246803 3.891556 53.480881 17.739870 7.260758 0.067923 68.994053 3.785158 0.000000 0.000000 -0.000000 -4.770724 14.798563 -10.721072 -0.321793 -35.877332 -11.593486 0.000000 -0.000000 -0.000000 -4.007466 -50.303243 -11.891736 -13.257603 -6.426271 21.165811 
3.001615 -0.072034 -4.325489 175.004915 -14.248946 -178.231160 -0.000000 -0.000000 0.000000 -4.478152 1.777935 5.479948 -0.451984 -1.588708 1.577736 0.000000 0.000000 0.000000 0.339924 -1.574251 2.622538 1.181630 -27.244444 -1.412141 -0.472944 -1.289735 -0.163829 -0.171253 -4.326172 0.277537 -80.915930 -23.831720 8.699314 6.075771 -32.614836 1.506233 -0.375831 -2.245126 0.542250 17.763344 17.490817 3.737000 53.424571 17.699628 7.090040 -1.739409 69.458713 2.118579 0.000000 0.000000 -0.000000 -4.723291 14.628884 -11.196874 -0.565138 -35.592027 -10.824225 0.000000 -0.000000 -0.000000 -3.914497 -50.203071 -11.870001 -12.770665 -5.635821 21.089303 
